<svg width="43" height="217" viewBox="0 0 43 217" fill="none" xmlns="http://www.w3.org/2000/svg">
<g clip-path="url(#clip0)">
<g filter="url(#filter0_f)">
<path d="M21.0736 3.11102L14.7552 199.699L28.5476 198.581L21.0736 3.11102Z" fill="url(#paint0_linear)"/>
</g>
<g filter="url(#filter1_f)">
<path d="M20.8079 0.00108141L11.0987 197.402L32.264 195.811L20.8079 0.00108141Z" fill="url(#paint1_linear)"/>
</g>
<rect x="-0.0527344" y="195.973" width="30.6736" height="30.6736" rx="15.3368" transform="rotate(-47.3882 -0.0527344 195.973)" fill="url(#paint2_radial)" fill-opacity="0.5"/>
<path d="M13.8287 203.534C9.15338 199.233 8.84989 191.956 13.1508 187.281C17.4518 182.605 24.7285 182.302 29.4038 186.603C34.0792 190.904 34.3827 198.18 30.0817 202.856C25.7807 207.531 18.504 207.835 13.8287 203.534Z" fill="url(#paint3_radial)"/>
</g>
<defs>
<filter id="filter0_f" x="-83.6096" y="-0.724822" width="209.961" height="210.617" filterUnits="userSpaceOnUse" color-interpolation-filters="sRGB">
<feFlood flood-opacity="0" result="BackgroundImageFix"/>
<feBlend mode="normal" in="SourceGraphic" in2="BackgroundImageFix" result="shape"/>
<feGaussianBlur stdDeviation="1.9171" result="effect1_foregroundBlur"/>
</filter>
<filter id="filter1_f" x="-82.7668" y="-0.766839" width="208.112" height="208.751" filterUnits="userSpaceOnUse" color-interpolation-filters="sRGB">
<feFlood flood-opacity="0" result="BackgroundImageFix"/>
<feBlend mode="normal" in="SourceGraphic" in2="BackgroundImageFix" result="shape"/>
<feGaussianBlur stdDeviation="0.38342" result="effect1_foregroundBlur"/>
</filter>
<linearGradient id="paint0_linear" x1="17.0476" y1="228.639" x2="7.99316" y2="27.8071" gradientUnits="userSpaceOnUse">
<stop offset="0.145265" stop-color="#8458E3" stop-opacity="0.04"/>
<stop offset="0.520833" stop-color="#6358E3" stop-opacity="0.71"/>
<stop offset="1" stop-color="#E35860" stop-opacity="0"/>
</linearGradient>
<linearGradient id="paint1_linear" x1="21.2298" y1="247.594" x2="13.1901" y2="19.0423" gradientUnits="userSpaceOnUse">
<stop stop-color="#E2589A" stop-opacity="0.63"/>
<stop offset="1" stop-color="#D058E3" stop-opacity="0"/>
</linearGradient>
<radialGradient id="paint2_radial" cx="0" cy="0" r="1" gradientUnits="userSpaceOnUse" gradientTransform="translate(15.2841 211.309) rotate(90) scale(15.3368)">
<stop stop-color="#E25858"/>
<stop offset="1" stop-color="#E25858" stop-opacity="0"/>
</radialGradient>
<radialGradient id="paint3_radial" cx="0" cy="0" r="1" gradientUnits="userSpaceOnUse" gradientTransform="translate(21.6163 195.068) rotate(42.6118) scale(11.5026)">
<stop offset="0.500202" stop-color="#E2589A"/>
<stop offset="1" stop-color="#A558E2" stop-opacity="0"/>
</radialGradient>
<clipPath id="clip0">
<rect width="43" height="217" fill="white"/>
</clipPath>
</defs>
</svg>
