<svg width="24" height="24" viewBox="0 0 24 24" fill="none" xmlns="http://www.w3.org/2000/svg">
<path fill-rule="evenodd" clip-rule="evenodd" d="M11.9995 2C15.5878 2 18.1918 2.49718 19.8472 4.15233C21.5026 5.8075 22 8.41142 22 12C22 15.5944 21.481 18.1962 19.8157 19.8497C18.1519 21.5018 15.5515 22 11.9995 22C8.44758 22 5.84736 21.5018 4.18374 19.8496C2.51871 18.1961 2 15.5943 2 12C2 8.41149 2.49717 5.80757 4.15229 4.15237C5.80742 2.49717 8.41124 2 11.9995 2ZM13.5976 15.6385C13.2788 15.9573 12.762 15.9573 12.4432 15.6385L9.38195 12.5772C9.22886 12.4241 9.14286 12.2165 9.14286 12C9.14286 11.7835 9.22886 11.5759 9.38195 11.4228L12.4432 8.36155C12.762 8.04275 13.2788 8.04275 13.5976 8.36155C13.9164 8.68034 13.9164 9.19721 13.5976 9.51601L11.1136 12L13.5976 14.484C13.9164 14.8028 13.9164 15.3197 13.5976 15.6385Z" fill="#7331FF"/>
</svg>
