<svg width="33" height="32" viewBox="0 0 33 32" fill="none" xmlns="http://www.w3.org/2000/svg">
<path fill-rule="evenodd" clip-rule="evenodd" d="M16.5866 4.6084C14.1487 4.6084 12.0967 4.68866 10.4017 4.96582C8.70501 5.24325 7.27967 5.73071 6.15816 6.60838C3.87151 8.39786 3.25262 11.4724 3.25262 16C3.25262 20.5275 3.87151 23.6021 6.15816 25.3916C7.27967 26.2693 8.70501 26.7567 10.4017 27.0341C12.0967 27.3113 14.1487 27.3916 16.5866 27.3916C19.0244 27.3916 21.0763 27.3113 22.7712 27.0341C24.4678 26.7567 25.893 26.2692 27.0144 25.3915C29.3007 23.602 29.9193 20.5274 29.9193 16C29.9193 11.4725 29.3007 8.39794 27.0144 6.60843C25.893 5.73072 24.4678 5.24326 22.7712 4.96582C21.0763 4.68866 19.0244 4.6084 16.5866 4.6084ZM9.07787 12.1165C9.07787 11.5445 9.54152 11.0809 10.1135 11.0809H23.0585C23.6304 11.0809 24.0941 11.5445 24.0941 12.1165C24.0941 12.6884 23.6304 13.1521 23.0585 13.1521H10.1135C9.54152 13.1521 9.07787 12.6884 9.07787 12.1165Z" fill="#28CAF0"/>
</svg>
