<svg width="80" height="80" viewBox="0 0 80 80" fill="none" xmlns="http://www.w3.org/2000/svg">
<g filter="url(#filter0_ii)">
<path d="M6.66602 40.0013C6.66602 12.5513 12.5493 6.66797 39.9994 6.66797C67.4494 6.66797 73.3327 12.5513 73.3327 40.0013C73.3327 67.4513 67.4494 73.3346 39.9994 73.3346C12.5493 73.3346 6.66602 67.4513 6.66602 40.0013Z" fill="url(#paint0_linear)" fill-opacity="0.6"/>
</g>
<path d="M41.1852 33.5543L41.2575 34.7458L40.0532 34.5999C35.6697 34.0406 31.8402 32.144 28.5887 28.9587L26.9991 27.3782L26.5896 28.5453C25.7226 31.1471 26.2765 33.8948 28.0829 35.7427C29.0463 36.764 28.8295 36.9099 27.1677 36.302C26.5896 36.1075 26.0838 35.9616 26.0357 36.0345C25.8671 36.2047 26.4451 38.4174 26.9027 39.2928C27.5289 40.5086 28.8055 41.7 30.2024 42.4052L31.3826 42.9644L29.9856 42.9887C28.6369 42.9887 28.5887 43.0131 28.7332 43.5237C29.2149 45.1042 31.1176 46.782 33.2371 47.5114L34.7304 48.0221L33.4298 48.8002C31.503 49.9187 29.239 50.5509 26.975 50.5995C25.8912 50.6238 25 50.7211 25 50.794C25 51.0372 27.9384 52.3988 29.6484 52.9338C34.7786 54.5143 40.8721 53.8335 45.4483 51.1344C48.6998 49.2135 51.9513 45.396 53.4687 41.7C54.2876 39.7305 55.1065 36.1318 55.1065 34.4054C55.1065 33.2869 55.1787 33.141 56.5275 31.8036C57.3223 31.0255 58.0689 30.1745 58.2134 29.9313C58.4543 29.4693 58.4302 29.4693 57.2019 29.8827C55.1546 30.6122 54.8656 30.5149 55.8772 29.4207C56.6238 28.6426 57.515 27.2323 57.515 26.8189C57.515 26.746 57.1537 26.8676 56.7443 27.0864C56.3107 27.3296 55.3473 27.6943 54.6248 27.9131L53.3242 28.3265L52.144 27.5241C51.4937 27.0864 50.5784 26.6001 50.0967 26.4542C48.8684 26.1138 46.9898 26.1624 45.8818 26.5515C42.8712 27.6457 40.9685 30.4663 41.1852 33.5543Z" fill="#DADADA"/>
<defs>
<filter id="filter0_ii" x="6.66602" y="0.953683" width="66.6667" height="78.0952" filterUnits="userSpaceOnUse" color-interpolation-filters="sRGB">
<feFlood flood-opacity="0" result="BackgroundImageFix"/>
<feBlend mode="normal" in="SourceGraphic" in2="BackgroundImageFix" result="shape"/>
<feColorMatrix in="SourceAlpha" type="matrix" values="0 0 0 0 0 0 0 0 0 0 0 0 0 0 0 0 0 0 127 0" result="hardAlpha"/>
<feOffset dy="5.71429"/>
<feGaussianBlur stdDeviation="2.85714"/>
<feComposite in2="hardAlpha" operator="arithmetic" k2="-1" k3="1"/>
<feColorMatrix type="matrix" values="0 0 0 0 0.304167 0 0 0 0 0.666 0 0 0 0 1 0 0 0 0.56 0"/>
<feBlend mode="normal" in2="shape" result="effect1_innerShadow"/>
<feColorMatrix in="SourceAlpha" type="matrix" values="0 0 0 0 0 0 0 0 0 0 0 0 0 0 0 0 0 0 127 0" result="hardAlpha"/>
<feOffset dy="-5.71429"/>
<feGaussianBlur stdDeviation="4.28571"/>
<feComposite in2="hardAlpha" operator="arithmetic" k2="-1" k3="1"/>
<feColorMatrix type="matrix" values="0 0 0 0 0.310104 0 0 0 0 0.722304 0 0 0 0 0.954167 0 0 0 0.47 0"/>
<feBlend mode="normal" in2="effect1_innerShadow" result="effect2_innerShadow"/>
</filter>
<linearGradient id="paint0_linear" x1="39.9994" y1="6.66797" x2="39.9994" y2="73.3346" gradientUnits="userSpaceOnUse">
<stop stop-color="#35A4C7"/>
<stop offset="1" stop-color="#1F7996"/>
</linearGradient>
</defs>
</svg>
