<svg width="80" height="80" viewBox="0 0 80 80" fill="none" xmlns="http://www.w3.org/2000/svg">
<g filter="url(#filter0_ii)">
<path d="M6.66602 40.0013C6.66602 12.5513 12.5493 6.66797 39.9994 6.66797C67.4494 6.66797 73.3327 12.5513 73.3327 40.0013C73.3327 67.4513 67.4494 73.3346 39.9994 73.3346C12.5493 73.3346 6.66602 67.4513 6.66602 40.0013Z" fill="url(#paint0_linear)" fill-opacity="0.6"/>
</g>
<path fill-rule="evenodd" clip-rule="evenodd" d="M50.19 24.1309C51.4632 24.6584 52.62 25.4314 53.5944 26.406C54.5689 27.3804 55.342 28.5372 55.8694 29.8103C56.3969 31.0835 56.6683 32.4481 56.6683 33.8262C56.6683 35.2043 56.3969 36.5689 55.8694 37.8421C55.342 39.1153 54.5689 40.2721 53.5944 41.2465L51.4063 43.4369C50.9567 43.8859 50.3471 44.1379 49.7118 44.1374C49.0764 44.137 48.4672 43.8842 48.0182 43.4346C47.5692 42.985 47.3172 42.3754 47.3177 41.74C47.3181 41.1046 47.571 40.4954 48.0206 40.0465L50.2111 37.856C51.1904 36.7678 51.7148 35.3453 51.6759 33.8818C51.6371 32.4184 51.0381 31.0256 50.0025 29.9909C48.9668 28.9562 47.5736 28.3584 46.1101 28.3209C44.6466 28.2834 43.2245 28.809 42.1372 29.7893L39.9468 31.9798C39.4978 32.4285 38.889 32.6804 38.2543 32.6802C37.6195 32.6799 37.0109 32.4276 36.5622 31.9786C36.1136 31.5296 35.8617 30.9208 35.8619 30.2861C35.8621 29.6514 36.1145 29.0427 36.5634 28.5941L38.7539 26.406C39.7283 25.4314 40.8851 24.6584 42.1583 24.1309C43.4314 23.6035 44.7961 23.332 46.1741 23.332C47.5522 23.332 48.9169 23.6035 50.19 24.1309ZM41.6938 34.9256L34.9248 41.6946C34.4761 42.1433 34.2241 42.7518 34.2241 43.3863C34.2241 44.0208 34.4761 44.6293 34.9248 45.078C35.3734 45.5266 35.9819 45.7787 36.6164 45.7787C37.2509 45.7787 37.8594 45.5266 38.3081 45.078L45.0771 38.3089C45.5258 37.8603 45.7779 37.2518 45.7779 36.6173C45.7779 35.9828 45.5258 35.3743 45.0771 34.9256C44.6285 34.4769 44.02 34.2249 43.3855 34.2249C42.751 34.2249 42.1425 34.4769 41.6938 34.9256ZM40.0552 48.0176L37.8647 50.2081C36.7774 51.1884 35.3553 51.714 33.8918 51.6765C32.4284 51.639 31.0351 51.0412 29.9994 50.0065C28.9638 48.9717 28.3648 47.579 28.326 46.1155C28.2872 44.6521 28.8115 43.2295 29.7909 42.1414L31.9814 39.9509C32.431 39.5019 32.6838 38.8928 32.6842 38.2574C32.6847 37.622 32.4327 37.0124 31.9837 36.5628C31.5348 36.1132 30.9256 35.8604 30.2902 35.8599C29.6548 35.8595 29.0452 36.1115 28.5956 36.5604L26.4075 38.7509C24.4396 40.7189 23.334 43.388 23.334 46.1712C23.334 48.9543 24.4396 51.6234 26.4075 53.5914C28.3755 55.5594 31.0447 56.665 33.8278 56.665C36.6109 56.665 39.2801 55.5594 41.248 53.5914L43.4385 51.4033C43.8875 50.9546 44.1398 50.346 44.1401 49.7113C44.1403 49.0766 43.8883 48.4677 43.4397 48.0188C42.991 47.5698 42.3824 47.3174 41.7477 47.3172C41.113 47.317 40.5041 47.5689 40.0552 48.0176Z" fill="#F2EBFF"/>
<defs>
<filter id="filter0_ii" x="6.66602" y="0.953683" width="66.6667" height="78.0952" filterUnits="userSpaceOnUse" color-interpolation-filters="sRGB">
<feFlood flood-opacity="0" result="BackgroundImageFix"/>
<feBlend mode="normal" in="SourceGraphic" in2="BackgroundImageFix" result="shape"/>
<feColorMatrix in="SourceAlpha" type="matrix" values="0 0 0 0 0 0 0 0 0 0 0 0 0 0 0 0 0 0 127 0" result="hardAlpha"/>
<feOffset dy="5.71429"/>
<feGaussianBlur stdDeviation="2.85714"/>
<feComposite in2="hardAlpha" operator="arithmetic" k2="-1" k3="1"/>
<feColorMatrix type="matrix" values="0 0 0 0 0.304167 0 0 0 0 0.666 0 0 0 0 1 0 0 0 0.56 0"/>
<feBlend mode="normal" in2="shape" result="effect1_innerShadow"/>
<feColorMatrix in="SourceAlpha" type="matrix" values="0 0 0 0 0 0 0 0 0 0 0 0 0 0 0 0 0 0 127 0" result="hardAlpha"/>
<feOffset dy="-5.71429"/>
<feGaussianBlur stdDeviation="4.28571"/>
<feComposite in2="hardAlpha" operator="arithmetic" k2="-1" k3="1"/>
<feColorMatrix type="matrix" values="0 0 0 0 0.310104 0 0 0 0 0.722304 0 0 0 0 0.954167 0 0 0 0.47 0"/>
<feBlend mode="normal" in2="effect1_innerShadow" result="effect2_innerShadow"/>
</filter>
<linearGradient id="paint0_linear" x1="39.9994" y1="6.66797" x2="39.9994" y2="73.3346" gradientUnits="userSpaceOnUse">
<stop stop-color="#35A4C7"/>
<stop offset="1" stop-color="#1F7996"/>
</linearGradient>
</defs>
</svg>
