<svg width="80" height="80" viewBox="0 0 80 80" fill="none" xmlns="http://www.w3.org/2000/svg">
<g filter="url(#filter0_ii)">
<path d="M6.66602 40.0013C6.66602 12.5513 12.5493 6.66797 39.9994 6.66797C67.4494 6.66797 73.3327 12.5513 73.3327 40.0013C73.3327 67.4513 67.4494 73.3346 39.9994 73.3346C12.5493 73.3346 6.66602 67.4513 6.66602 40.0013Z" fill="url(#paint0_linear)" fill-opacity="0.6"/>
</g>
<path d="M34.725 44.4704L34.2034 52.284C34.9698 52.284 35.3083 51.9336 35.7361 51.5177L39.4179 47.9376L47.0777 53.5967C48.4874 54.3745 49.5048 53.9718 49.8559 52.288L54.8843 28.5924C55.3991 26.5284 54.0975 25.5922 52.7489 26.2045L23.2224 37.5898C21.2069 38.3982 21.2187 39.5226 22.855 40.0236L30.4322 42.3886L47.9742 31.3216C48.8023 30.8194 49.5623 31.0894 48.9385 31.643L34.7245 44.47L34.725 44.4704Z" fill="#DADADA"/>
<defs>
<filter id="filter0_ii" x="6.66602" y="0.953683" width="66.6667" height="78.0952" filterUnits="userSpaceOnUse" color-interpolation-filters="sRGB">
<feFlood flood-opacity="0" result="BackgroundImageFix"/>
<feBlend mode="normal" in="SourceGraphic" in2="BackgroundImageFix" result="shape"/>
<feColorMatrix in="SourceAlpha" type="matrix" values="0 0 0 0 0 0 0 0 0 0 0 0 0 0 0 0 0 0 127 0" result="hardAlpha"/>
<feOffset dy="5.71429"/>
<feGaussianBlur stdDeviation="2.85714"/>
<feComposite in2="hardAlpha" operator="arithmetic" k2="-1" k3="1"/>
<feColorMatrix type="matrix" values="0 0 0 0 0.304167 0 0 0 0 0.666 0 0 0 0 1 0 0 0 0.56 0"/>
<feBlend mode="normal" in2="shape" result="effect1_innerShadow"/>
<feColorMatrix in="SourceAlpha" type="matrix" values="0 0 0 0 0 0 0 0 0 0 0 0 0 0 0 0 0 0 127 0" result="hardAlpha"/>
<feOffset dy="-5.71429"/>
<feGaussianBlur stdDeviation="4.28571"/>
<feComposite in2="hardAlpha" operator="arithmetic" k2="-1" k3="1"/>
<feColorMatrix type="matrix" values="0 0 0 0 0.310104 0 0 0 0 0.722304 0 0 0 0 0.954167 0 0 0 0.47 0"/>
<feBlend mode="normal" in2="effect1_innerShadow" result="effect2_innerShadow"/>
</filter>
<linearGradient id="paint0_linear" x1="39.9994" y1="6.66797" x2="39.9994" y2="73.3346" gradientUnits="userSpaceOnUse">
<stop stop-color="#35A4C7"/>
<stop offset="1" stop-color="#1F7996"/>
</linearGradient>
</defs>
</svg>
