<svg width="56" height="56" viewBox="0 0 56 56" fill="none" xmlns="http://www.w3.org/2000/svg">
<g filter="url(#filter0_ii)">
<path d="M0 28C0 4.942 4.942 0 28 0C51.058 0 56 4.942 56 28C56 51.058 51.058 56 28 56C4.942 56 0 51.058 0 28Z" fill="url(#paint0_linear)" fill-opacity="0.6"/>
</g>
<path fill-rule="evenodd" clip-rule="evenodd" d="M36.5623 14.671C37.6317 15.1141 38.6034 15.7634 39.4219 16.582C40.2404 17.4004 40.8898 18.3721 41.3328 19.4415C41.7758 20.5109 42.0039 21.6572 42.0039 22.8147C42.0039 23.9723 41.7758 25.1185 41.3328 26.1879C40.8898 27.2573 40.2404 28.229 39.4219 29.0474L37.5839 30.8873C37.2063 31.2645 36.6943 31.4761 36.1606 31.4757C35.6269 31.4754 35.1152 31.263 34.7381 30.8853C34.361 30.5077 34.1493 29.9957 34.1497 29.462C34.1501 28.9283 34.3624 28.4166 34.7401 28.0395L36.58 26.1996C37.4026 25.2855 37.843 24.0907 37.8104 22.8614C37.7778 21.6322 37.2747 20.4623 36.4048 19.5932C35.5349 18.7241 34.3646 18.222 33.1353 18.1905C31.9061 18.159 30.7116 18.6004 29.7983 19.4239L27.9584 21.2638C27.5813 21.6406 27.0699 21.8522 26.5367 21.8521C26.0036 21.8519 25.4924 21.6399 25.1155 21.2628C24.7387 20.8857 24.5271 20.3743 24.5272 19.8411C24.5274 19.308 24.7394 18.7968 25.1165 18.4199L26.9564 16.582C27.7749 15.7634 28.7465 15.1141 29.816 14.671C30.8854 14.228 32.0316 14 33.1891 14C34.3467 14 35.4929 14.228 36.5623 14.671ZM29.4258 23.7335L23.7401 29.4192C23.3632 29.796 23.1515 30.3072 23.1515 30.8401C23.1515 31.3731 23.3632 31.8842 23.7401 32.2611C24.117 32.6379 24.6281 32.8496 25.161 32.8496C25.694 32.8496 26.2051 32.6379 26.582 32.2611L32.2677 26.5753C32.6446 26.1985 32.8563 25.6873 32.8563 25.1544C32.8563 24.6214 32.6446 24.1103 32.2677 23.7335C31.8908 23.3566 31.3797 23.1449 30.8468 23.1449C30.3138 23.1449 29.8027 23.3566 29.4258 23.7335ZM28.0471 34.7349L26.2072 36.5748C25.2939 37.3982 24.0994 37.8397 22.8701 37.8082C21.6409 37.7767 20.4706 37.2746 19.6007 36.4055C18.7308 35.5363 18.2276 34.3665 18.195 33.1373C18.1624 31.908 18.6029 30.7131 19.4255 29.7991L21.2654 27.9592C21.6431 27.5821 21.8554 27.0704 21.8558 26.5367C21.8562 26.003 21.6445 25.491 21.2674 25.1133C20.8903 24.7357 20.3786 24.5233 19.8449 24.5229C19.3112 24.5226 18.7992 24.7342 18.4215 25.1113L16.5836 26.9513C14.9306 28.6043 14.002 30.8463 14.002 33.184C14.002 35.5217 14.9306 37.7637 16.5836 39.4167C18.2366 41.0697 20.4786 41.9984 22.8163 41.9984C25.1541 41.9984 27.396 41.0697 29.049 39.4167L30.889 37.5788C31.2661 37.2019 31.4781 36.6907 31.4782 36.1575C31.4784 35.6244 31.2668 35.113 30.89 34.7359C30.5131 34.3588 30.0019 34.1468 29.4687 34.1466C28.9356 34.1464 28.4242 34.358 28.0471 34.7349Z" fill="#F2EBFF"/>
<defs>
<filter id="filter0_ii" x="0" y="-3" width="56" height="62" filterUnits="userSpaceOnUse" color-interpolation-filters="sRGB">
<feFlood flood-opacity="0" result="BackgroundImageFix"/>
<feBlend mode="normal" in="SourceGraphic" in2="BackgroundImageFix" result="shape"/>
<feColorMatrix in="SourceAlpha" type="matrix" values="0 0 0 0 0 0 0 0 0 0 0 0 0 0 0 0 0 0 127 0" result="hardAlpha"/>
<feOffset dy="3"/>
<feGaussianBlur stdDeviation="1.5"/>
<feComposite in2="hardAlpha" operator="arithmetic" k2="-1" k3="1"/>
<feColorMatrix type="matrix" values="0 0 0 0 1 0 0 0 0 1 0 0 0 0 1 0 0 0 0.04 0"/>
<feBlend mode="normal" in2="shape" result="effect1_innerShadow"/>
<feColorMatrix in="SourceAlpha" type="matrix" values="0 0 0 0 0 0 0 0 0 0 0 0 0 0 0 0 0 0 127 0" result="hardAlpha"/>
<feOffset dy="-3"/>
<feGaussianBlur stdDeviation="2"/>
<feComposite in2="hardAlpha" operator="arithmetic" k2="-1" k3="1"/>
<feColorMatrix type="matrix" values="0 0 0 0 1 0 0 0 0 1 0 0 0 0 1 0 0 0 0.04 0"/>
<feBlend mode="normal" in2="effect1_innerShadow" result="effect2_innerShadow"/>
</filter>
<linearGradient id="paint0_linear" x1="31.3333" y1="0" x2="31.3333" y2="56" gradientUnits="userSpaceOnUse">
<stop stop-color="white" stop-opacity="0.08"/>
<stop offset="1" stop-color="white" stop-opacity="0.13"/>
</linearGradient>
</defs>
</svg>
