<svg width="56" height="56" viewBox="0 0 56 56" fill="none" xmlns="http://www.w3.org/2000/svg">
<g filter="url(#filter0_ii)">
<path d="M0 28C0 4.942 4.942 0 28 0C51.058 0 56 4.942 56 28C56 51.058 51.058 56 28 56C4.942 56 0 51.058 0 28Z" fill="url(#paint0_linear)" fill-opacity="0.6"/>
</g>
<path d="M28.5956 22.3844L28.6563 23.4224L27.6447 23.2953C23.9626 22.8081 20.7458 21.1556 18.0145 18.3804L16.6792 17.0034L16.3353 18.0203C15.6069 20.2871 16.0723 22.681 17.5896 24.291C18.3989 25.1808 18.2168 25.3079 16.8208 24.7783C16.3353 24.6088 15.9104 24.4817 15.87 24.5453C15.7283 24.6935 16.2139 26.6214 16.5983 27.384C17.1243 28.4433 18.1966 29.4814 19.37 30.0957L20.3614 30.583L19.1879 30.6042C18.055 30.6042 18.0145 30.6254 18.1359 31.0702C18.5405 32.4473 20.1388 33.909 21.9192 34.5446L23.1735 34.9895L22.081 35.6674C20.4625 36.6419 18.5608 37.1927 16.659 37.2351C15.7486 37.2563 15 37.341 15 37.4046C15 37.6164 17.4682 38.8028 18.9047 39.2689C23.214 40.6459 28.3326 40.0527 32.1766 37.7012C34.9078 36.0276 37.6391 32.7015 38.9137 29.4814C39.6016 27.7654 40.2894 24.63 40.2894 23.1259C40.2894 22.1513 40.3501 22.0242 41.4831 20.8591C42.1507 20.1811 42.7779 19.4397 42.8993 19.2278C43.1016 18.8253 43.0814 18.8253 42.0496 19.1854C40.3299 19.821 40.0871 19.7362 40.9368 18.7829C41.564 18.105 42.3126 16.8763 42.3126 16.5161C42.3126 16.4526 42.0091 16.5585 41.6652 16.7492C41.301 16.961 40.4917 17.2788 39.8848 17.4694L38.7923 17.8296L37.801 17.1305C37.2547 16.7492 36.4859 16.3255 36.0813 16.1983C35.0495 15.9017 33.4714 15.9441 32.5407 16.2831C30.0118 17.2364 28.4135 19.6939 28.5956 22.3844Z" fill="#DADADA"/>
<defs>
<filter id="filter0_ii" x="0" y="-3" width="56" height="62" filterUnits="userSpaceOnUse" color-interpolation-filters="sRGB">
<feFlood flood-opacity="0" result="BackgroundImageFix"/>
<feBlend mode="normal" in="SourceGraphic" in2="BackgroundImageFix" result="shape"/>
<feColorMatrix in="SourceAlpha" type="matrix" values="0 0 0 0 0 0 0 0 0 0 0 0 0 0 0 0 0 0 127 0" result="hardAlpha"/>
<feOffset dy="3"/>
<feGaussianBlur stdDeviation="1.5"/>
<feComposite in2="hardAlpha" operator="arithmetic" k2="-1" k3="1"/>
<feColorMatrix type="matrix" values="0 0 0 0 1 0 0 0 0 1 0 0 0 0 1 0 0 0 0.04 0"/>
<feBlend mode="normal" in2="shape" result="effect1_innerShadow"/>
<feColorMatrix in="SourceAlpha" type="matrix" values="0 0 0 0 0 0 0 0 0 0 0 0 0 0 0 0 0 0 127 0" result="hardAlpha"/>
<feOffset dy="-3"/>
<feGaussianBlur stdDeviation="2"/>
<feComposite in2="hardAlpha" operator="arithmetic" k2="-1" k3="1"/>
<feColorMatrix type="matrix" values="0 0 0 0 1 0 0 0 0 1 0 0 0 0 1 0 0 0 0.04 0"/>
<feBlend mode="normal" in2="effect1_innerShadow" result="effect2_innerShadow"/>
</filter>
<linearGradient id="paint0_linear" x1="31.3333" y1="0" x2="31.3333" y2="56" gradientUnits="userSpaceOnUse">
<stop stop-color="white" stop-opacity="0.08"/>
<stop offset="1" stop-color="white" stop-opacity="0.13"/>
</linearGradient>
</defs>
</svg>
