<svg width="142" height="40" viewBox="0 0 142 40" fill="none" xmlns="http://www.w3.org/2000/svg">
<g clip-path="url(#clip0)">
<path d="M19.8321 0.167564C20.1405 0.0460972 20.4863 0.02741 20.8134 0.0180664C24.9442 0.158221 29.019 1.66254 32.2807 4.204C31.1125 3.43783 29.7854 2.93327 28.4489 2.54084C26.29 1.90548 24.0564 1.62517 21.8414 1.25142C21.2713 1.1393 20.6825 1.03652 20.1405 0.830961C19.9442 0.737524 19.7199 0.653432 19.6171 0.46656C19.561 0.317062 19.7106 0.214282 19.8321 0.167564Z" fill="#1E98B4"/>
<path d="M11.0097 2.13956C12.1312 1.57894 13.2994 1.11176 14.505 0.775391C13.8508 1.02767 13.1592 1.36404 12.8041 1.9994C12.5891 2.37315 12.6639 2.8777 12.9723 3.18604C13.4957 3.71863 14.262 3.89616 14.9723 4.03631C16.8321 4.34465 18.7293 4.23253 20.6078 4.23253C23.9443 4.17646 27.3461 4.24187 30.5798 5.17623C31.5798 5.46588 32.5517 5.83963 33.4676 6.31615C34.5985 6.91414 35.6732 7.67098 36.477 8.68009C36.7573 9.05383 37.0003 9.4556 37.234 9.85738C38.0471 11.2402 38.7013 12.7072 39.1499 14.2489C38.7947 13.3145 38.2059 12.4736 37.4957 11.7635C36.0844 10.3526 34.2527 9.43692 32.3555 8.8763C30.4302 8.31568 28.4209 8.11947 26.4302 8.11947C23.8041 8.12881 21.2059 8.50256 18.6172 8.89499C16.6732 9.18464 14.7293 9.49298 12.7573 9.53035C11.6919 9.5397 10.6078 9.47429 9.57978 9.14727C8.89753 8.93236 8.23398 8.58665 7.748 8.04472C7.23398 7.4841 6.99099 6.68055 7.12183 5.93306C7.29006 4.92395 7.96295 4.06434 8.76669 3.45701C9.47697 2.9618 10.2433 2.53199 11.0097 2.13956Z" fill="#28CAF0"/>
<path d="M1.54984 12.2959C2.22274 10.6981 3.08255 9.18448 4.14797 7.82031C3.83956 8.28749 3.57788 8.80139 3.40966 9.33398C3.05452 10.4739 3.12928 11.7633 3.68068 12.8378C4.20405 13.8937 5.15732 14.6972 6.21339 15.1831C7.58723 15.8185 9.12928 15.996 10.6246 15.9773C12.5125 15.9399 14.3816 15.5942 16.2134 15.1924C17.9984 14.8 19.7741 14.3328 21.5685 13.9404C23.7835 13.4452 26.0171 13.0434 28.2882 12.978C30.5779 12.9126 32.9237 13.1836 35.0358 14.1086C36.3536 14.6879 37.5872 15.5288 38.5031 16.65C39.3629 17.6872 39.933 18.9766 39.9891 20.3314C39.9704 22.387 39.6059 24.452 38.9424 26.3861C39.3255 25.0313 39.0919 23.5363 38.3536 22.3403C37.8769 21.5461 37.1947 20.8734 36.4283 20.3501C35.4003 19.6587 34.2227 19.2289 33.0171 18.9953C31.933 18.7897 30.8302 18.7243 29.7368 18.7617C27.4564 18.8364 25.2134 19.3223 22.9984 19.8736C20.6246 20.4809 18.2695 21.191 15.8769 21.7143C13.9984 22.1254 12.0826 22.4151 10.1573 22.4057C8.22274 22.387 6.24143 22.0133 4.5405 21.0509C3.12928 20.2567 1.94237 19.014 1.33489 17.5003C0.811525 16.2109 0.718067 14.7439 1.11994 13.4171C1.24143 13.0434 1.39096 12.6697 1.54984 12.2959Z" fill="#53D5F3"/>
<path d="M-0.00034743 19.5649H0.00899836C0.02769 21.3963 0.831428 23.1435 2.04638 24.4797C3.47629 26.0681 5.4389 27.1052 7.49498 27.6472C9.94358 28.2919 12.5137 28.2638 15.0183 27.9555C17.3268 27.6659 19.5978 27.1239 21.8688 26.5726C23.6725 26.1428 25.4763 25.7037 27.3081 25.4234C28.4389 25.2552 29.5884 25.1524 30.738 25.1898C31.9529 25.2365 33.1959 25.4327 34.2987 25.9653C35.3081 26.4418 36.1959 27.2641 36.5884 28.3292C37.0277 29.4785 36.794 30.796 36.1305 31.8144C35.5978 32.5712 34.981 33.272 34.3361 33.9448C33.5417 34.7483 32.6819 35.5145 31.7567 36.1685C32.3081 35.7014 32.7847 35.0847 32.8875 34.3559C32.9716 33.8513 32.8221 33.3187 32.5043 32.917C32.1585 32.4685 31.6632 32.1695 31.1492 31.9733C30.1398 31.5808 29.0464 31.5154 27.981 31.4967C25.6632 31.5341 23.3828 31.9452 21.0931 32.2722C18.8782 32.5993 16.6539 32.8796 14.4109 32.8889C11.794 32.9076 9.13049 32.5526 6.70059 31.5154C5.35479 30.9455 4.10246 30.1606 3.04638 29.1515C2.13984 28.2825 1.38283 27.2267 0.934232 26.0494C0.261335 23.9658 -0.0283848 21.7607 -0.00034743 19.5649Z" fill="#28CAF0"/>
<path d="M3.8418 31.7778C4.96329 33.142 6.47731 34.1324 8.08479 34.8425C9.62684 35.5246 11.2624 35.9544 12.9259 36.216C16.1782 36.7393 19.4773 36.5617 22.7483 36.5617C23.8231 36.5898 24.9166 36.6085 25.9633 36.8607C26.3838 36.9729 26.8231 37.113 27.1315 37.44C27.3278 37.6269 27.4025 37.9446 27.2717 38.1875C27.0567 38.6173 26.6082 38.8416 26.1876 39.0191C24.1876 39.6918 22.0661 40.0095 19.9539 40.0002C20.0941 39.9815 20.253 39.9721 20.3839 39.8974C20.4493 39.8413 20.3839 39.7386 20.3278 39.7199C20.0381 39.5517 19.7016 39.4863 19.3745 39.4115C18.5427 39.234 17.7016 39.1219 16.8605 38.9817C15.1128 38.7014 13.3652 38.3744 11.6829 37.8138C10.5427 37.4307 9.42124 36.9542 8.41189 36.3001C7.36516 35.5807 6.40254 34.7211 5.52404 33.8054C4.91656 33.1607 4.34647 32.4879 3.8418 31.7778Z" fill="#1E98B4"/>
</g>
<path d="M59.648 14.464C61.216 14.464 62.464 14.976 63.392 16C64.336 17.008 64.808 18.4 64.808 20.176V28H60.728V20.728C60.728 19.832 60.496 19.136 60.032 18.64C59.568 18.144 58.944 17.896 58.16 17.896C57.376 17.896 56.752 18.144 56.288 18.64C55.824 19.136 55.592 19.832 55.592 20.728V28H51.488V14.608H55.592V16.384C56.008 15.792 56.568 15.328 57.272 14.992C57.976 14.64 58.768 14.464 59.648 14.464ZM74.3799 18.016H72.1719V28H68.0679V18.016H66.5799V14.608H68.0679V14.224C68.0679 12.576 68.5399 11.328 69.4839 10.48C70.4279 9.616 71.8119 9.184 73.6359 9.184C73.9399 9.184 74.1639 9.192 74.3079 9.208V12.688C73.5239 12.64 72.9719 12.752 72.6519 13.024C72.3319 13.296 72.1719 13.784 72.1719 14.488V14.608H74.3799V18.016ZM83.7723 24.52V28H81.6843C80.1963 28 79.0363 27.64 78.2043 26.92C77.3723 26.184 76.9563 24.992 76.9563 23.344V18.016H75.3243V14.608H76.9563V11.344H81.0603V14.608H83.7483V18.016H81.0603V23.392C81.0603 23.792 81.1563 24.08 81.3483 24.256C81.5403 24.432 81.8603 24.52 82.3083 24.52H83.7723ZM102.234 14.608C103.258 14.608 104.17 14.824 104.97 15.256C105.77 15.672 106.402 16.304 106.866 17.152C107.33 18 107.562 19.032 107.562 20.248V28H105.402V20.56C105.402 19.248 105.074 18.248 104.418 17.56C103.778 16.856 102.906 16.504 101.802 16.504C100.666 16.504 99.7623 16.872 99.0903 17.608C98.4183 18.328 98.0823 19.376 98.0823 20.752V28H95.9223V20.56C95.9223 19.248 95.5943 18.248 94.9383 17.56C94.2983 16.856 93.4263 16.504 92.3223 16.504C91.1863 16.504 90.2823 16.872 89.6103 17.608C88.9383 18.328 88.6023 19.376 88.6023 20.752V28H86.4183V14.848H88.6023V16.744C89.0343 16.056 89.6103 15.528 90.3303 15.16C91.0663 14.792 91.8743 14.608 92.7543 14.608C93.8583 14.608 94.8343 14.856 95.6823 15.352C96.5303 15.848 97.1623 16.576 97.5783 17.536C97.9463 16.608 98.5543 15.888 99.4023 15.376C100.25 14.864 101.194 14.608 102.234 14.608ZM110.329 21.376C110.329 20.032 110.601 18.856 111.145 17.848C111.689 16.824 112.433 16.032 113.377 15.472C114.337 14.912 115.401 14.632 116.569 14.632C117.721 14.632 118.721 14.88 119.569 15.376C120.417 15.872 121.049 16.496 121.465 17.248V14.848H123.673V28H121.465V25.552C121.033 26.32 120.385 26.96 119.521 27.472C118.673 27.968 117.681 28.216 116.545 28.216C115.377 28.216 114.321 27.928 113.377 27.352C112.433 26.776 111.689 25.968 111.145 24.928C110.601 23.888 110.329 22.704 110.329 21.376ZM121.465 21.4C121.465 20.408 121.265 19.544 120.865 18.808C120.465 18.072 119.921 17.512 119.233 17.128C118.561 16.728 117.817 16.528 117.001 16.528C116.185 16.528 115.441 16.72 114.769 17.104C114.097 17.488 113.561 18.048 113.161 18.784C112.761 19.52 112.561 20.384 112.561 21.376C112.561 22.384 112.761 23.264 113.161 24.016C113.561 24.752 114.097 25.32 114.769 25.72C115.441 26.104 116.185 26.296 117.001 26.296C117.817 26.296 118.561 26.104 119.233 25.72C119.921 25.32 120.465 24.752 120.865 24.016C121.265 23.264 121.465 22.392 121.465 21.4ZM129.548 17.272C129.98 16.52 130.62 15.896 131.468 15.4C132.332 14.888 133.332 14.632 134.468 14.632C135.636 14.632 136.692 14.912 137.636 15.472C138.596 16.032 139.348 16.824 139.892 17.848C140.436 18.856 140.708 20.032 140.708 21.376C140.708 22.704 140.436 23.888 139.892 24.928C139.348 25.968 138.596 26.776 137.636 27.352C136.692 27.928 135.636 28.216 134.468 28.216C133.348 28.216 132.356 27.968 131.492 27.472C130.644 26.96 129.996 26.328 129.548 25.576V34.24H127.364V14.848H129.548V17.272ZM138.476 21.376C138.476 20.384 138.276 19.52 137.876 18.784C137.476 18.048 136.932 17.488 136.244 17.104C135.572 16.72 134.828 16.528 134.012 16.528C133.212 16.528 132.468 16.728 131.78 17.128C131.108 17.512 130.564 18.08 130.148 18.832C129.748 19.568 129.548 20.424 129.548 21.4C129.548 22.392 129.748 23.264 130.148 24.016C130.564 24.752 131.108 25.32 131.78 25.72C132.468 26.104 133.212 26.296 134.012 26.296C134.828 26.296 135.572 26.104 136.244 25.72C136.932 25.32 137.476 24.752 137.876 24.016C138.276 23.264 138.476 22.384 138.476 21.376Z" fill="white"/>
<defs>
<clipPath id="clip0">
<rect width="40" height="40" fill="white"/>
</clipPath>
</defs>
</svg>
